<?xml version="1.0" encoding="utf-8"?>
<!-- Generator: Adobe Illustrator 16.0.0, SVG Export Plug-In . SVG Version: 6.00 Build 0)  -->
<!DOCTYPE svg PUBLIC "-//W3C//DTD SVG 1.1//EN" "http://www.w3.org/Graphics/SVG/1.1/DTD/svg11.dtd">
<svg version="1.1" id="Mission" xmlns="http://www.w3.org/2000/svg" xmlns:xlink="http://www.w3.org/1999/xlink" x="0px" y="0px"
	 width="512px" height="512px" viewBox="0 0 512 512" enable-background="new 0 0 512 512" xml:space="preserve">
<circle id="Background_16_" fill="#45546D" cx="256" cy="256" r="256"/>
<path id="Shadow_17_" opacity="0.1" d="M271.927,83.899l-52.26,219.768L124,387l121.539,124.77c3.471,0.14,6.955,0.23,10.461,0.23
	c121.596,0,223.389-84.778,249.502-198.449L271.927,83.899z"/>
<g id="Rocket">
	<path fill="#44BACA" d="M287.119,238.691c0,0,19.988,9.287,27.265,22.258c19.413,34.601,36.352,75.231,57.833,86.799
		c21.48,11.564,13.614,30.208,13.614,30.208H259.854L287.119,238.691z"/>
	<path fill="#E6E7E8" d="M388.257,340.135c-0.549-6.58-3.162-11.566-6.304-11.566c-3.144,0-5.756,4.986-6.305,11.566h-0.106v41.042
		h12.822v-41.042H388.257z"/>
	<path fill="#44BACA" d="M224.881,238.691c0,0-19.989,9.287-27.264,22.258c-19.415,34.601-36.353,75.231-57.833,86.799
		c-21.482,11.564-13.616,30.208-13.616,30.208h125.976L224.881,238.691z"/>
	<path fill="#E6E7E8" d="M123.743,340.135c0.549-6.58,3.162-11.566,6.305-11.566c3.142,0,5.755,4.986,6.304,11.566h0.108v41.042
		h-12.825v-41.042H123.743z"/>
	<path fill="#E6E7E8" d="M305.573,188.478c0-41.373-22.194-113.192-49.573-113.192c-27.379,0-49.573,71.819-49.573,113.192
		c0,0.414,0.005,0.827,0.011,1.24c-0.003,0.138-0.011,0.274-0.011,0.412v160.837c0,14.905,12.083,26.989,26.99,26.989h45.167
		c14.904,0,26.989-12.084,26.989-26.989V190.13c0-0.138-0.009-0.274-0.011-0.412C305.567,189.305,305.573,188.892,305.573,188.478z"
		/>
	<path fill="#44BACA" d="M218.519,122.987h74.963C284.393,96.76,270.971,75.285,256,75.285S227.608,96.76,218.519,122.987z"/>
	<circle fill="#44BACA" cx="256" cy="210.562" r="25.611"/>
	<rect x="206.427" y="342.337" fill="#999B9E" width="99.146" height="12.534"/>
	<path fill="#45546D" d="M214.877,134.536h82.245c-0.632-2.216-1.3-4.416-1.993-6.592h-78.257
		C216.178,130.12,215.511,132.32,214.877,134.536z"/>
	<rect x="123.636" y="381.177" fill="#44BACA" width="12.825" height="6.419"/>
	<rect x="375.542" y="381.177" fill="#44BACA" width="12.822" height="6.419"/>
	<path fill="#273245" d="M274.198,375.021h-35.296c-14.473,0-26.207,5.088-26.207,11.364v1.622h-0.001l8.721,17.859h35.136h35.134
		l8.72-17.859v-1.622C300.405,380.109,288.673,375.021,274.198,375.021z"/>
	<rect x="206.427" y="354.871" fill="#45546D" width="99.146" height="23.085"/>
</g>
</svg>
